<?xml version="1.0" encoding="UTF-8"?><svg id="Calque_2" xmlns="http://www.w3.org/2000/svg" viewBox="0 0 1355.74 1355.74"><defs><style>.cls-1{fill:#1e666e;}.cls-2{fill:none;}.cls-3{fill:#e0c463;}.cls-4{fill:#2fa2ae;}.cls-5{fill:#e0a100;}</style></defs><g id="croquis"><path class="cls-5" d="M693.65,653.67V110.5c49.21-1.15,193.4,1.86,334.71,100.5,157.87,110.2,183.14,266.42,195.52,311.02-184.72,43.88-345.5,87.77-530.23,131.65Z"/><path class="cls-3" d="M693.65,689.7l480.38-116.04c11.79,44.36,28.13,135.08,12.43,226-12.26,71.05-23.81,120.29-83.34,203.76-146.72-124.1-235.01-184.15-409.47-313.73Z"/><path class="cls-1" d="M695.71,729.55l383.02,312.29c-28.18,36.23-90.53,104.12-172.43,146.64-63.99,33.22-110.18,53.82-212.66,56.92,10.05-191.9,4.44-298.54,2.06-515.84Z"/><path class="cls-4" d="M662.88,1245.38c-306.06,0-531.02-229.55-531.02-529.48S356.81,186.41,662.88,186.41"/><rect class="cls-2" width="1355.74" height="1355.74"/></g></svg>